<?xml version="1.0" encoding="utf-8"?>
<!-- Generator: Adobe Illustrator 24.1.0, SVG Export Plug-In . SVG Version: 6.00 Build 0)  -->
<svg version="1.1" id="Layer_1" xmlns="http://www.w3.org/2000/svg" xmlns:xlink="http://www.w3.org/1999/xlink" x="0px" y="0px"
	 viewBox="0 0 60 60" style="enable-background:new 0 0 60 60;" xml:space="preserve">
<style type="text/css">
	.st0{fill:none;stroke:#95C4C2;stroke-width:5;stroke-miterlimit:10;}
	.st1{opacity:0.26;fill:#010101;enable-background:new    ;}
	.st2{fill:none;stroke:#070808;stroke-width:5;stroke-miterlimit:10;}
</style>
<g>
	<path class="st0" d="M19.6,37.9c7-7.1,14-14.2,20.9-21.3c1.5,1.8,2.6,4,3.2,6.5c-6.2,6.3-12.5,12.7-18.7,19L23.2,44"/>
	<g>
		<path class="st0" d="M28.8,49.9c5.6-5.4,11.3-11.2,14.3-18.6c0.9-2.2,1.4-4.6,1-7"/>
	</g>
	<line class="st0" x1="18.1" y1="36" x2="21.6" y2="39.4"/>
	<path class="st0" d="M18.2,29.4c5.8-6.1,11.7-11.9,17.8-17.7c-3.8-3.4-9.2-4.8-14.4-3.2c-7.9,2.4-12.4,10.8-10,18.7
		c0.5,1.7,1.8,3.5,3.5,5.5C16.1,31.5,17.2,30.5,18.2,29.4z"/>
</g>
<ellipse class="st1" cx="30" cy="54.9" rx="13.9" ry="1.2"/>
<g>
	<path class="st2" d="M22.6,34.9c7-7.1,14-14.2,20.9-21.3c1.5,1.8,2.6,4,3.2,6.5c-6.2,6.3-12.5,12.7-18.7,19l-1.8,1.8"/>
	<g>
		<path class="st2" d="M31.7,46.8c5.6-5.4,11.3-11.2,14.3-18.6c0.9-2.2,1.4-4.6,1-7"/>
	</g>
	<line class="st2" x1="21.1" y1="32.9" x2="24.5" y2="36.4"/>
	<path class="st2" d="M21.1,26.4c5.8-6.1,11.7-11.9,17.8-17.7c-3.8-3.4-9.2-4.8-14.4-3.2c-7.9,2.4-12.4,10.8-10,18.7
		c0.5,1.7,1.8,3.5,3.5,5.5C19.1,28.5,20.1,27.4,21.1,26.4z"/>
</g>
</svg>
